<svg width="305" height="145" viewBox="0 0 305 145" fill="none" xmlns="http://www.w3.org/2000/svg">
<rect width="305" height="145" rx="10" fill="#232323"/>
<path d="M106.882 112H151.863C153.292 112 154.695 111.635 155.932 110.942C157.162 110.256 158.189 109.259 158.911 108.05C159.623 106.855 159.999 105.49 160 104.099C160 102.713 159.622 101.351 158.907 100.15L128.7 49.3648C127.978 48.1563 126.951 47.1591 125.722 46.4735C124.478 45.7785 123.077 45.414 121.653 45.415C120.224 45.415 118.821 45.7802 117.584 46.4735C116.355 47.1592 115.328 48.1563 114.606 49.3648L106.882 62.3588L91.7806 36.9488C91.058 35.7404 90.0304 34.7434 88.801 34.058C87.557 33.3632 86.156 32.999 84.7314 33C83.303 33 81.8992 33.3651 80.6618 34.058C79.4326 34.7435 78.4052 35.7405 77.6827 36.9488L40.0918 100.15C39.3786 101.344 39.0013 102.709 39 104.099C39 105.486 39.3748 106.849 40.089 108.05C40.811 109.259 41.8383 110.256 43.0677 110.942C44.3115 111.637 45.7126 112.001 47.1372 112H75.3723C86.5596 112 94.8094 107.231 100.486 97.9253L114.269 74.7577L121.651 62.3588L143.806 99.6015H114.269L106.882 112ZM74.9115 99.5892L55.2074 99.5845L84.7446 49.9305L99.4825 74.7577L89.6149 91.3515C85.845 97.389 81.5622 99.5887 74.9119 99.5887L74.9115 99.5892Z" fill="#00DC82"/>
<path d="M172.549 86.4545C170.447 86.4545 168.634 85.9905 167.109 85.0625C165.594 84.125 164.424 82.8182 163.6 81.142C162.786 79.4564 162.379 77.4962 162.379 75.2614C162.379 73.0265 162.786 71.0568 163.6 69.3523C164.424 67.6383 165.57 66.303 167.038 65.3466C168.515 64.3807 170.239 63.8977 172.208 63.8977C173.345 63.8977 174.467 64.0871 175.575 64.4659C176.683 64.8447 177.691 65.4602 178.6 66.3125C179.51 67.1553 180.234 68.2727 180.774 69.6648C181.313 71.0568 181.583 72.7708 181.583 74.8068V76.2273H164.765V73.3295H178.174C178.174 72.0985 177.928 71 177.436 70.0341C176.953 69.0682 176.261 68.3059 175.362 67.7472C174.472 67.1884 173.42 66.9091 172.208 66.9091C170.873 66.9091 169.718 67.2405 168.742 67.9034C167.777 68.5568 167.033 69.4091 166.512 70.4602C165.992 71.5114 165.731 72.6383 165.731 73.8409V75.7727C165.731 77.4205 166.015 78.8172 166.583 79.9631C167.161 81.0994 167.961 81.9659 168.984 82.5625C170.007 83.1496 171.195 83.4432 172.549 83.4432C173.43 83.4432 174.225 83.3201 174.936 83.0739C175.655 82.8182 176.276 82.4394 176.796 81.9375C177.317 81.4261 177.72 80.7917 178.004 80.0341L181.242 80.9432C180.902 82.0417 180.329 83.0076 179.524 83.8409C178.719 84.6648 177.724 85.3087 176.541 85.7727C175.357 86.2273 174.027 86.4545 172.549 86.4545ZM186.683 86V64.1818H189.921V67.5909H190.206C190.66 66.4261 191.394 65.5218 192.407 64.8778C193.42 64.2244 194.637 63.8977 196.058 63.8977C197.497 63.8977 198.695 64.2244 199.652 64.8778C200.617 65.5218 201.37 66.4261 201.91 67.5909H202.137C202.696 66.464 203.534 65.5691 204.652 64.9062C205.769 64.2339 207.109 63.8977 208.671 63.8977C210.622 63.8977 212.218 64.5085 213.458 65.7301C214.699 66.9422 215.319 68.8314 215.319 71.3977V86H211.967V71.3977C211.967 69.7879 211.527 68.6373 210.646 67.946C209.765 67.2547 208.728 66.9091 207.535 66.9091C206.001 66.9091 204.813 67.3731 203.97 68.3011C203.127 69.2197 202.706 70.3845 202.706 71.7955V86H199.296V71.0568C199.296 69.8163 198.894 68.8172 198.089 68.0597C197.284 67.2926 196.247 66.9091 194.978 66.9091C194.107 66.9091 193.293 67.1411 192.535 67.6051C191.787 68.0691 191.181 68.7131 190.717 69.5369C190.262 70.3513 190.035 71.2936 190.035 72.3636V86H186.683ZM227.869 86.5114C226.486 86.5114 225.232 86.2509 224.105 85.7301C222.978 85.1998 222.083 84.4375 221.42 83.4432C220.757 82.4394 220.426 81.2273 220.426 79.8068C220.426 78.5568 220.672 77.5436 221.164 76.767C221.657 75.9811 222.315 75.3655 223.139 74.9205C223.963 74.4754 224.872 74.1439 225.866 73.9261C226.87 73.6989 227.878 73.5189 228.892 73.3864C230.217 73.2159 231.292 73.0881 232.116 73.0028C232.949 72.9081 233.555 72.7519 233.934 72.5341C234.322 72.3163 234.517 71.9375 234.517 71.3977V71.2841C234.517 69.8826 234.133 68.7936 233.366 68.017C232.608 67.2405 231.458 66.8523 229.914 66.8523C228.314 66.8523 227.059 67.2027 226.15 67.9034C225.241 68.6042 224.602 69.3523 224.233 70.1477L221.051 69.0114C221.619 67.6856 222.376 66.6534 223.323 65.9148C224.28 65.1667 225.322 64.6458 226.448 64.3523C227.585 64.0492 228.702 63.8977 229.801 63.8977C230.501 63.8977 231.306 63.983 232.215 64.1534C233.134 64.3144 234.019 64.6506 234.872 65.1619C235.733 65.6733 236.448 66.4451 237.017 67.4773C237.585 68.5095 237.869 69.892 237.869 71.625V86H234.517V83.0455H234.346C234.119 83.5189 233.74 84.0256 233.21 84.5653C232.679 85.1051 231.974 85.5644 231.093 85.9432C230.213 86.322 229.138 86.5114 227.869 86.5114ZM228.38 83.5C229.706 83.5 230.823 83.2396 231.733 82.7188C232.651 82.1979 233.342 81.5256 233.806 80.7017C234.28 79.8778 234.517 79.0114 234.517 78.1023V75.0341C234.375 75.2045 234.062 75.3608 233.579 75.5028C233.106 75.6354 232.556 75.7538 231.931 75.858C231.316 75.9527 230.715 76.0379 230.127 76.1136C229.55 76.1799 229.081 76.2367 228.721 76.2841C227.85 76.3977 227.036 76.5824 226.278 76.8381C225.53 77.0843 224.924 77.4583 224.46 77.9602C224.005 78.4527 223.778 79.125 223.778 79.9773C223.778 81.142 224.209 82.0227 225.071 82.6193C225.942 83.2064 227.045 83.5 228.38 83.5ZM243.987 86V64.1818H247.34V86H243.987ZM245.692 60.5455C245.039 60.5455 244.475 60.3229 244.002 59.8778C243.538 59.4328 243.306 58.8977 243.306 58.2727C243.306 57.6477 243.538 57.1127 244.002 56.6676C244.475 56.2225 245.039 56 245.692 56C246.345 56 246.904 56.2225 247.368 56.6676C247.842 57.1127 248.078 57.6477 248.078 58.2727C248.078 58.8977 247.842 59.4328 247.368 59.8778C246.904 60.3229 246.345 60.5455 245.692 60.5455ZM256.832 56.9091V86H253.48V56.9091H256.832Z" fill="#F2F2F2"/>
</svg>
