<svg width="305" height="145" viewBox="0 0 305 145" fill="none" xmlns="http://www.w3.org/2000/svg">
<rect width="305" height="145" rx="10" fill="#232323"/>
<path d="M130.067 28H150.333L99.6667 116.808L49 28H87.76L99.6667 48.5933L111.32 28H130.067Z" fill="#41B883"/>
<path d="M49 28L99.6667 116.808L150.333 28H130.067L99.6667 81.2851L69.0133 28H49Z" fill="#41B883"/>
<path d="M69.0133 28L99.6667 81.5425L130.067 28H111.32L99.6667 48.5933L87.76 28H69.0133Z" fill="#35495E"/>
<path d="M162.549 86.1206C160.447 86.1206 158.634 85.6565 157.109 84.7285C155.594 83.791 154.424 82.4842 153.6 80.8081C152.786 79.1225 152.379 77.1622 152.379 74.9274C152.379 72.6925 152.786 70.7228 153.6 69.0183C154.424 67.3043 155.57 65.969 157.038 65.0126C158.515 64.0467 160.239 63.5637 162.208 63.5637C163.345 63.5637 164.467 63.7531 165.575 64.1319C166.683 64.5107 167.691 65.1262 168.6 65.9785C169.509 66.8213 170.234 67.9387 170.774 69.3308C171.313 70.7228 171.583 72.4368 171.583 74.4728V75.8933H154.765V72.9956H168.174C168.174 71.7645 167.928 70.666 167.436 69.7001C166.953 68.7342 166.261 67.9719 165.362 67.4132C164.472 66.8545 163.42 66.5751 162.208 66.5751C160.873 66.5751 159.718 66.9065 158.742 67.5694C157.777 68.2228 157.033 69.0751 156.512 70.1262C155.991 71.1774 155.731 72.3043 155.731 73.5069V75.4387C155.731 77.0865 156.015 78.4833 156.583 79.6291C157.161 80.7654 157.961 81.6319 158.984 82.2285C160.007 82.8156 161.195 83.1092 162.549 83.1092C163.43 83.1092 164.225 82.9861 164.936 82.7399C165.655 82.4842 166.276 82.1054 166.796 81.6035C167.317 81.0922 167.72 80.4577 168.004 79.7001L171.242 80.6092C170.902 81.7077 170.329 82.6736 169.524 83.5069C168.719 84.3308 167.724 84.9747 166.541 85.4387C165.357 85.8933 164.027 86.1206 162.549 86.1206ZM176.683 85.666V63.8478H179.921V67.2569H180.206C180.66 66.0922 181.394 65.1878 182.407 64.5439C183.42 63.8904 184.637 63.5637 186.058 63.5637C187.497 63.5637 188.695 63.8904 189.652 64.5439C190.617 65.1878 191.37 66.0922 191.91 67.2569H192.137C192.696 66.13 193.534 65.2351 194.652 64.5723C195.769 63.8999 197.109 63.5637 198.671 63.5637C200.622 63.5637 202.218 64.1745 203.458 65.3961C204.699 66.6082 205.319 68.4975 205.319 71.0637V85.666H201.967V71.0637C201.967 69.4539 201.527 68.3033 200.646 67.612C199.765 66.9207 198.728 66.5751 197.535 66.5751C196.001 66.5751 194.813 67.0391 193.97 67.9672C193.127 68.8857 192.706 70.0505 192.706 71.4615V85.666H189.296V70.7228C189.296 69.4823 188.894 68.4833 188.089 67.7257C187.284 66.9586 186.247 66.5751 184.978 66.5751C184.107 66.5751 183.293 66.8071 182.535 67.2711C181.787 67.7351 181.181 68.3791 180.717 69.2029C180.262 70.0173 180.035 70.9596 180.035 72.0297V85.666H176.683ZM217.869 86.1774C216.486 86.1774 215.232 85.917 214.105 85.3961C212.978 84.8658 212.083 84.1035 211.42 83.1092C210.757 82.1054 210.426 80.8933 210.426 79.4728C210.426 78.2228 210.672 77.2096 211.164 76.4331C211.657 75.6471 212.315 75.0315 213.139 74.5865C213.963 74.1414 214.872 73.81 215.866 73.5922C216.87 73.3649 217.878 73.185 218.892 73.0524C220.217 72.8819 221.292 72.7541 222.116 72.6689C222.949 72.5742 223.555 72.4179 223.934 72.2001C224.322 71.9823 224.517 71.6035 224.517 71.0637V70.9501C224.517 69.5486 224.133 68.4596 223.366 67.6831C222.608 66.9065 221.458 66.5183 219.914 66.5183C218.314 66.5183 217.059 66.8687 216.15 67.5694C215.241 68.2702 214.602 69.0183 214.232 69.8137L211.051 68.6774C211.619 67.3516 212.376 66.3194 213.323 65.5808C214.28 64.8327 215.322 64.3118 216.448 64.0183C217.585 63.7153 218.702 63.5637 219.801 63.5637C220.501 63.5637 221.306 63.649 222.215 63.8194C223.134 63.9804 224.019 64.3166 224.872 64.8279C225.733 65.3393 226.448 66.1111 227.017 67.1433C227.585 68.1755 227.869 69.5581 227.869 71.291V85.666H224.517V82.7115H224.346C224.119 83.185 223.74 83.6916 223.21 84.2314C222.679 84.7711 221.974 85.2304 221.093 85.6092C220.213 85.988 219.138 86.1774 217.869 86.1774ZM218.38 83.166C219.706 83.166 220.823 82.9056 221.732 82.3848C222.651 81.8639 223.342 81.1916 223.806 80.3677C224.28 79.5439 224.517 78.6774 224.517 77.7683V74.7001C224.375 74.8706 224.062 75.0268 223.579 75.1689C223.106 75.3014 222.556 75.4198 221.931 75.524C221.316 75.6187 220.714 75.7039 220.127 75.7797C219.55 75.8459 219.081 75.9028 218.721 75.9501C217.85 76.0637 217.036 76.2484 216.278 76.5041C215.53 76.7503 214.924 77.1243 214.46 77.6262C214.005 78.1187 213.778 78.791 213.778 79.6433C213.778 80.8081 214.209 81.6887 215.071 82.2853C215.942 82.8725 217.045 83.166 218.38 83.166ZM233.987 85.666V63.8478H237.34V85.666H233.987ZM235.692 60.2115C235.039 60.2115 234.475 59.9889 234.002 59.5439C233.538 59.0988 233.306 58.5637 233.306 57.9387C233.306 57.3137 233.538 56.7787 234.002 56.3336C234.475 55.8886 235.039 55.666 235.692 55.666C236.345 55.666 236.904 55.8886 237.368 56.3336C237.842 56.7787 238.078 57.3137 238.078 57.9387C238.078 58.5637 237.842 59.0988 237.368 59.5439C236.904 59.9889 236.345 60.2115 235.692 60.2115ZM246.832 56.5751V85.666H243.48V56.5751H246.832Z" fill="#F2F2F2"/>
</svg>
